<svg width="31" height="31" viewBox="0 0 31 31" fill="none" xmlns="http://www.w3.org/2000/svg">
<path d="M2.58594 20.6663V5.16634C2.58594 4.4812 2.85811 3.82412 3.34258 3.33965C3.82705 2.85518 4.48413 2.58301 5.16927 2.58301H19.3776" stroke="white" stroke-opacity="0.66" stroke-width="2" stroke-linecap="round" stroke-linejoin="round"/>
<path d="M28.4167 23.25H14.2083C13.5232 23.25 12.8661 23.5222 12.3816 24.0066C11.8972 24.4911 11.625 25.1482 11.625 25.8333M11.625 25.8333C11.625 26.5185 11.8972 27.1756 12.3816 27.66C12.8661 28.1445 13.5232 28.4167 14.2083 28.4167H27.7708C27.9421 28.4167 28.1064 28.3486 28.2275 28.2275C28.3486 28.1064 28.4167 27.9421 28.4167 27.7708V8.39583C28.4167 8.22455 28.3486 8.06028 28.2275 7.93916C28.1064 7.81804 27.9421 7.75 27.7708 7.75H14.2083C13.5232 7.75 12.8661 8.02217 12.3816 8.50664C11.8972 8.99111 11.625 9.64819 11.625 10.3333V25.8333Z" stroke="white" stroke-opacity="0.66" stroke-width="2" stroke-linecap="round" stroke-linejoin="round"/>
<path d="M6.46094 18.083H5.16927C4.48413 18.083 3.82705 18.3552 3.34258 18.8396C2.85811 19.3241 2.58594 19.9812 2.58594 20.6663C2.58594 21.3515 2.85811 22.0086 3.34258 22.493C3.82705 22.9775 4.48413 23.2497 5.16927 23.2497H6.46094" stroke="white" stroke-opacity="0.66" stroke-width="2" stroke-linecap="round" stroke-linejoin="round"/>
</svg>
