<svg width="36" height="30" viewBox="0 0 36 30" fill="none" xmlns="http://www.w3.org/2000/svg">
<g id="Frame">
<path id="Vector" d="M31.5 10.0004C31.4995 9.56196 31.3606 9.13138 31.0973 8.75182C30.834 8.37226 30.4556 8.05707 30 7.83787L19.5 2.83787C19.0439 2.61845 18.5266 2.50293 18 2.50293C17.4734 2.50293 16.9561 2.61845 16.5 2.83787L6 7.83787C5.54439 8.05707 5.16597 8.37226 4.90269 8.75182C4.63941 9.13138 4.50054 9.56196 4.5 10.0004V20.0004C4.50054 20.4388 4.63941 20.8694 4.90269 21.2489C5.16597 21.6285 5.54439 21.9437 6 22.1629L16.5 27.1629C16.9561 27.3823 17.4734 27.4978 18 27.4978C18.5266 27.4978 19.0439 27.3823 19.5 27.1629L30 22.1629C30.4556 21.9437 30.834 21.6285 31.0973 21.2489C31.3606 20.8694 31.4995 20.4388 31.5 20.0004V10.0004Z" stroke="white" stroke-opacity="0.66" stroke-width="2" stroke-linecap="round" stroke-linejoin="round"/>
<path id="Vector_2" d="M4.94922 8.75L17.9992 15L31.0492 8.75" stroke="white" stroke-opacity="0.66" stroke-width="2" stroke-linecap="round" stroke-linejoin="round"/>
<path id="Vector_3" d="M18 27.5V15" stroke="white" stroke-opacity="0.66" stroke-width="2" stroke-linecap="round" stroke-linejoin="round"/>
</g>
</svg>
