<svg width="29" height="29" viewBox="0 0 29 29" fill="none" xmlns="http://www.w3.org/2000/svg">
<g id="github">
<path id="Path" fill-rule="evenodd" clip-rule="evenodd" d="M14.4575 0.966675C6.80841 0.966675 0.604156 7.12211 0.604156 14.711C0.604156 20.7821 4.59868 25.9257 10.038 27.7808C10.7179 27.8651 10.9729 27.4435 10.9729 27.1062C10.9729 26.7689 10.9729 25.9257 10.9729 24.7452C7.14837 25.5884 6.29847 22.8901 6.29847 22.8901C5.70355 21.288 4.76866 20.8664 4.76866 20.8664C3.49381 20.0232 4.85365 20.0232 4.85365 20.0232C6.21348 20.1076 6.97839 21.4567 6.97839 21.4567C8.25324 23.5647 10.208 22.9745 10.9729 22.6372C11.0579 21.7097 11.4829 21.1194 11.8228 20.7821C8.76318 20.4448 5.53357 19.2643 5.53357 13.9521C5.53357 12.4343 6.0435 11.2538 6.97839 10.242C6.8934 9.98903 6.38346 8.55557 7.14837 6.70051C7.14837 6.70051 8.33823 6.36322 10.9729 8.13396C12.0778 7.79668 13.2676 7.71236 14.4575 7.71236C15.6474 7.71236 16.8372 7.881 17.9421 8.13396C20.5768 6.36322 21.7666 6.70051 21.7666 6.70051C22.5315 8.55557 22.0216 9.98903 21.9366 10.3263C22.7865 11.2538 23.3814 12.5187 23.3814 14.0364C23.3814 19.3487 20.1518 20.4448 17.0922 20.7821C17.6021 21.2037 18.0271 22.0469 18.0271 23.3118C18.0271 25.1668 18.0271 26.6003 18.0271 27.1062C18.0271 27.4435 18.282 27.8651 18.962 27.7808C24.4863 25.9257 28.3958 20.7821 28.3958 14.711C28.3108 7.12211 22.1066 0.966675 14.4575 0.966675Z" fill="white"/>
</g>
</svg>
