<svg width="29" height="17" viewBox="0 0 29 17" fill="none" xmlns="http://www.w3.org/2000/svg">
<g id="_&#229;&#136;&#134;&#233;&#155;&#162;&#230;&#168;&#161;&#229;&#188;&#143;" clip-path="url(#clip0_151_9)">
<path id="Vector" d="M16.3575 8.49998C16.3575 13.0713 12.6956 16.7771 8.17873 16.7771C3.66185 16.7771 0 13.0713 0 8.49998C0 3.92866 3.66185 0.2229 8.17873 0.2229C12.6956 0.2229 16.3575 3.92866 16.3575 8.49998Z" fill="white"/>
<path id="Vector_2" d="M25.3298 8.49975C25.3298 12.8029 23.4989 16.2911 21.2403 16.2911C18.9817 16.2911 17.1508 12.8027 17.1508 8.49975C17.1508 4.19684 18.982 0.708374 21.2406 0.708374C23.4992 0.708374 25.3301 4.19684 25.3301 8.49975" fill="white"/>
<path id="Vector_3" d="M29 8.50001C29 12.3555 28.3561 15.4809 27.5617 15.4809C26.7673 15.4809 26.1234 12.3555 26.1234 8.50001C26.1234 4.64454 26.7673 1.51917 27.5617 1.51917C28.3561 1.51917 29 4.64454 29 8.50001Z" fill="white"/>
</g>
<defs>
<clipPath id="clip0_151_9">
<rect width="29" height="16.5542" fill="white" transform="translate(0 0.2229)"/>
</clipPath>
</defs>
</svg>
